<svg xmlns="http://www.w3.org/2000/svg" xmlns:xlink="http://www.w3.org/1999/xlink" viewBox="0 0 97.84 107.34"><defs><style>.cls-1{isolation:isolate;}.cls-2{fill:url(#linear-gradient);}.cls-3{fill:url(#linear-gradient-2);}.cls-4{fill:url(#linear-gradient-3);}.cls-5{fill:url(#linear-gradient-4);}.cls-6{fill:none;}.cls-6,.cls-7{stroke:#422a73;stroke-linejoin:round;stroke-width:3.01px;}.cls-7{fill:url(#linear-gradient-5);}.cls-8{fill:#fff;opacity:0.4;mix-blend-mode:overlay;}</style><linearGradient id="linear-gradient" x1="57.41" y1="20.56" x2="96.34" y2="20.56" gradientUnits="userSpaceOnUse"><stop offset="0" stop-color="#4bbdc9"/><stop offset="1" stop-color="#295a8a"/></linearGradient><linearGradient id="linear-gradient-2" x1="48.23" y1="33.74" x2="75.8" y2="33.74" xlink:href="#linear-gradient"/><linearGradient id="linear-gradient-3" x1="18.97" y1="41.85" x2="66.63" y2="41.85" gradientUnits="userSpaceOnUse"><stop offset="0" stop-color="#fff"/><stop offset="1" stop-color="#d2e5f7"/></linearGradient><linearGradient id="linear-gradient-4" x1="3.38" y1="71.44" x2="56.06" y2="71.44" gradientUnits="userSpaceOnUse"><stop offset="0" stop-color="#fc9cd9"/><stop offset="1" stop-color="#fc358f"/></linearGradient><linearGradient id="linear-gradient-5" x1="3.79" y1="95.63" x2="12.59" y2="98.36" xlink:href="#linear-gradient-4"/></defs><g class="cls-1"><g id="Layer_2" data-name="Layer 2"><g id="OBJECTS"><path class="cls-2" d="M93.63,7.78a10.55,10.55,0,0,1-.78,14.89L74,39.62,57.41,21.17l18.81-17A10.53,10.53,0,0,1,91.1,5Z"/><path class="cls-3" d="M74.78,40.43a4,4,0,0,1-.3,5.64L73,47.42a4,4,0,0,1-5.65-.31l-.72-.8L50,27.86l-.74-.81a4,4,0,0,1,.29-5.64L51,20.06a4,4,0,0,1,5.65.31l.72.8L74,39.62Z"/><polygon class="cls-4" points="66.63 46.31 56.05 55.84 18.97 55.84 50 27.86 66.63 46.31"/><path class="cls-5" d="M56.06,55.84,27.63,81.46a10.54,10.54,0,0,1-13,.88l-4.18,3.75a3.7,3.7,0,0,1-5.24-.27l-.89-1a3.72,3.72,0,0,1,.27-5.25l4.17-3.76A10.53,10.53,0,0,1,11,63l8-7.17Z"/><path class="cls-6" d="M74,39.62l.74.81a4,4,0,0,1-.3,5.64L73,47.42a4,4,0,0,1-5.65-.31l-.72-.8L50,27.86l-.74-.81a4,4,0,0,1,.29-5.64L51,20.06a4,4,0,0,1,5.65.31l.72.8Z"/><path class="cls-6" d="M50,27.86l-31,28L11,63A10.53,10.53,0,0,0,8.78,75.83L4.61,79.59a3.72,3.72,0,0,0-.27,5.25l.89,1a3.7,3.7,0,0,0,5.24.27l4.18-3.75a10.54,10.54,0,0,0,13-.88L56.06,55.84l10.57-9.53"/><path class="cls-6" d="M74,39.62,92.85,22.67a10.55,10.55,0,0,0,.78-14.89L91.1,5a10.53,10.53,0,0,0-14.88-.77l-18.81,17"/><line class="cls-6" x1="18.97" y1="55.84" x2="56.06" y2="55.84"/><path class="cls-7" d="M12.61,100.28a5.55,5.55,0,0,1-11.1,0c0-3.06,5.55-13.08,5.55-13.08S12.61,97.22,12.61,100.28Z"/><path class="cls-8" d="M22.78,67.43a3.54,3.54,0,0,1-5-.32h0a3.52,3.52,0,0,1,.32-5l11.41-10a3.54,3.54,0,0,1,5,.32h0a3.53,3.53,0,0,1-.32,5ZM43.12,49.55a3.54,3.54,0,0,0,.32-5h0a3.52,3.52,0,0,0-5-.32l-1.55,1.36a3.53,3.53,0,0,0-.32,5h0a3.52,3.52,0,0,0,5,.32Z"/></g></g></g></svg>