<svg xmlns="http://www.w3.org/2000/svg" xmlns:xlink="http://www.w3.org/1999/xlink" viewBox="0 0 82.07 118.16"><defs><style>.cls-1{isolation:isolate;}.cls-2{fill:url(#linear-gradient);}.cls-3{fill:url(#linear-gradient-2);}.cls-4{fill:url(#linear-gradient-3);}.cls-5{fill:url(#linear-gradient-4);}.cls-6,.cls-8{fill:#fff;mix-blend-mode:overlay;}.cls-6{opacity:0.8;}.cls-7{fill:none;stroke-linejoin:round;stroke-width:2.82px;}.cls-10,.cls-7,.cls-9{stroke:#422a73;}.cls-8{opacity:0.4;}.cls-10,.cls-9{stroke-miterlimit:10;stroke-width:1.88px;}.cls-9{fill:url(#linear-gradient-5);}.cls-10{fill:url(#linear-gradient-6);}</style><linearGradient id="linear-gradient" x1="22.94" y1="6.61" x2="59.35" y2="6.61" gradientUnits="userSpaceOnUse"><stop offset="0" stop-color="#fff"/><stop offset="1" stop-color="#d2e5f7"/></linearGradient><linearGradient id="linear-gradient-2" x1="12.5" y1="44.09" x2="68.96" y2="44.09" xlink:href="#linear-gradient"/><linearGradient id="linear-gradient-3" x1="69.65" y1="64.97" x2="52.27" y2="82.87" gradientUnits="userSpaceOnUse"><stop offset="0" stop-color="#ffe226"/><stop offset="1" stop-color="#ff8826"/></linearGradient><linearGradient id="linear-gradient-4" x1="12.44" y1="91.72" x2="74.11" y2="110.79" xlink:href="#linear-gradient-3"/><linearGradient id="linear-gradient-5" x1="31.23" y1="49.79" x2="42.84" y2="53.38" xlink:href="#linear-gradient-3"/><linearGradient id="linear-gradient-6" x1="39.53" y1="20.07" x2="49.1" y2="23.03" xlink:href="#linear-gradient-3"/></defs><g class="cls-1"><g id="Layer_2" data-name="Layer 2"><g id="OBJECTS"><path class="cls-2" d="M59.35,5.57V7.65a4.15,4.15,0,0,1-4.16,4.15H27.09a4.15,4.15,0,0,1-4.15-4.15V5.57a4.15,4.15,0,0,1,4.15-4.16h28.1A4.16,4.16,0,0,1,59.35,5.57Z"/><path class="cls-3" d="M55,37.06c0,2.5,7.36,21.15,14,37.39-.52-.25-14.17-6.79-32,1.94-8.06-3-15.74-4.72-24.44-.44,6.78-16.58,14.59-36.31,14.59-38.89V11.8H55Z"/><path class="cls-4" d="M69,74.46c1.35,3.32,2.67,6.52,3.9,9.47-14.58,2.2-25.57-3.7-35.93-7.54,17.85-8.73,31.5-2.19,32-1.94Z"/><path class="cls-5" d="M36.94,76.39c10.36,3.84,21.35,9.74,35.93,7.54,3.38,8.19,6,14.39,6.43,15.29,1.33,2.79,4.13,17.53-6.48,17.53H9.24c-10.61,0-7.8-14.74-6.48-17.53C3.32,98.05,7.63,87.81,12.49,76h0C21.2,71.67,28.88,73.42,36.94,76.39Z"/><path class="cls-6" d="M7.64,99.22c.55-1.17,4.87-11.41,9.73-23.27h0a24.09,24.09,0,0,1,8.31-2.43A23.86,23.86,0,0,0,12.5,76h0C7.63,87.81,3.32,98.05,2.76,99.22,1.44,102-1.37,116.75,9.24,116.75h4.88C3.51,116.75,6.31,102,7.64,99.22Z"/><path class="cls-7" d="M27.09,11.8a4.15,4.15,0,0,1-4.15-4.15V5.57a4.15,4.15,0,0,1,4.15-4.16h28.1a4.16,4.16,0,0,1,4.16,4.16V7.65a4.15,4.15,0,0,1-4.16,4.15H27.09Z"/><path class="cls-7" d="M12.5,76c6.78-16.58,14.59-36.31,14.59-38.89V11.8"/><path class="cls-7" d="M69,74.46c1.35,3.32,2.67,6.52,3.9,9.47,3.38,8.19,6,14.39,6.43,15.29,1.33,2.79,4.13,17.53-6.48,17.53H9.24c-10.61,0-7.8-14.74-6.48-17.53C3.32,98.05,7.63,87.81,12.49,76"/><path class="cls-7" d="M55,11.8V37.06c0,2.5,7.36,21.15,14,37.39"/><path class="cls-7" d="M12.49,76h0c8.7-4.28,16.38-2.53,24.44.44,10.36,3.84,21.35,9.74,35.93,7.54"/><path class="cls-7" d="M69,74.46h0c-.52-.25-14.17-6.79-32,1.94h0"/><path class="cls-8" d="M73.4,98.78a4.39,4.39,0,0,1-2.64,5.62h0a4.39,4.39,0,0,1-5.63-2.64L58.7,84a4.4,4.4,0,0,1,2.64-5.63h0A4.39,4.39,0,0,1,67,81ZM61.93,67.05a4.39,4.39,0,0,0-5.62-2.64h0A4.4,4.4,0,0,0,53.67,70l.87,2.41a4.4,4.4,0,0,0,5.63,2.64h0a4.39,4.39,0,0,0,2.63-5.63Z"/><circle class="cls-9" cx="36.93" cy="51.55" r="7.29"/><circle class="cls-10" cx="44.22" cy="21.53" r="6.01"/></g></g></g></svg>