<svg xmlns="http://www.w3.org/2000/svg" xmlns:xlink="http://www.w3.org/1999/xlink" viewBox="0 0 96.36 95.38"><defs><style>.cls-1{isolation:isolate;}.cls-15,.cls-2{opacity:0.83;}.cls-10,.cls-11,.cls-13,.cls-14,.cls-15,.cls-2{mix-blend-mode:multiply;}.cls-2{fill:url(#radial-gradient);}.cls-3{fill:#fcc103;}.cls-18,.cls-23,.cls-4{fill:#f97f06;}.cls-5{fill:#35bae9;}.cls-20,.cls-22,.cls-6{fill:#1891b2;}.cls-7{fill:#42dabf;}.cls-17,.cls-21,.cls-8{fill:#1aa086;}.cls-9{fill:#f9327a;}.cls-10,.cls-11,.cls-13,.cls-14{opacity:0.08;}.cls-10{fill:url(#linear-gradient);}.cls-11{fill:url(#linear-gradient-2);}.cls-12,.cls-19,.cls-24{fill:#ce2469;}.cls-13{fill:url(#linear-gradient-3);}.cls-14{fill:url(#linear-gradient-4);}.cls-15{fill:url(#radial-gradient-2);}.cls-16{fill:#fff;}.cls-17{font-size:7.14px;}.cls-17,.cls-18,.cls-19,.cls-20,.cls-21,.cls-22,.cls-23,.cls-24,.cls-26{font-family:OpenSans-Bold, Open Sans;font-weight:700;}.cls-18{font-size:4.74px;}.cls-19{font-size:4.56px;}.cls-20{font-size:6.28px;}.cls-21,.cls-22{font-size:3.34px;}.cls-23,.cls-24{font-size:2.92px;}.cls-25,.cls-26{fill:#c1c1c1;}.cls-26{font-size:3.33px;}</style><radialGradient id="radial-gradient" cx="54.05" cy="56.1" r="39.02" gradientTransform="translate(-5.93 -0.26) rotate(0.54)" gradientUnits="userSpaceOnUse"><stop offset="0"/><stop offset="1" stop-color="#fff"/></radialGradient><linearGradient id="linear-gradient" x1="45.32" y1="28.8" x2="51.3" y2="28.8" gradientTransform="translate(-5.93 -0.26) rotate(0.54)" gradientUnits="userSpaceOnUse"><stop offset="0" stop-color="#fff"/><stop offset="1"/></linearGradient><linearGradient id="linear-gradient-2" x1="30.89" y1="56.03" x2="30.89" y2="51.33" xlink:href="#linear-gradient"/><linearGradient id="linear-gradient-3" x1="51.3" y1="69.6" x2="58.35" y2="69.6" gradientTransform="translate(-5.93 -0.26) rotate(0.54)" xlink:href="#radial-gradient"/><linearGradient id="linear-gradient-4" x1="77.04" y1="52.31" x2="77.04" y2="45.66" gradientTransform="translate(-5.93 -0.26) rotate(0.54)" gradientUnits="userSpaceOnUse"><stop offset="0"/><stop offset="0.1" stop-color="#1d1d1d"/><stop offset="0.43" stop-color="#7c7c7c"/><stop offset="0.71" stop-color="#c3c3c3"/><stop offset="0.9" stop-color="#eee"/><stop offset="1" stop-color="#fff"/></linearGradient><radialGradient id="radial-gradient-2" cx="55.09" cy="55.03" r="17.76" xlink:href="#radial-gradient"/></defs><g class="cls-1"><g id="Layer_2" data-name="Layer 2"><g id="OBJECTS"><path class="cls-2" d="M75.44,29a39,39,0,1,0,11.17,27.7A38.93,38.93,0,0,0,75.44,29ZM47.59,56.35Z"/><path class="cls-3" d="M4.06,51.08A40.82,40.82,0,0,0,44.5,92.3l.39-40.83Z"/><path class="cls-4" d="M20.11,51.24a24.79,24.79,0,0,0,24.54,25l.24-24.78Z"/><path class="cls-5" d="M13.45,19.43A44.75,44.75,0,0,0,0,51l44.89.43h0l.43-44.89A44.77,44.77,0,0,0,13.45,19.43Z"/><path class="cls-6" d="M27.53,33.78a24.77,24.77,0,0,0-7.42,17.46l24.78.23h0l.23-24.78A24.74,24.74,0,0,0,27.53,33.78Z"/><path class="cls-7" d="M81.63,15.42A51.35,51.35,0,0,0,45.38,0l-.49,51.47h0L96.36,52A51.34,51.34,0,0,0,81.63,15.42Z"/><path class="cls-8" d="M62.57,34.12a24.69,24.69,0,0,0-17.45-7.43l-.23,24.78h0l24.77.24A24.64,24.64,0,0,0,62.57,34.12Z"/><path class="cls-9" d="M44.89,51.47h0l-.35,36.71A36.7,36.7,0,0,0,81.6,51.82Z"/><path class="cls-10" d="M39.33,6.92,38.9,51.41l6,.06.43-44.89A45.57,45.57,0,0,0,39.33,6.92Z"/><path class="cls-11" d="M44.85,55.46l0-4L4.06,51.08c0,1.35,0,2.68.15,4Z"/><path class="cls-12" d="M44.89,51.47h0l-.24,24.78a24.77,24.77,0,0,0,25-24.54Z"/><path class="cls-13" d="M51.94,51.54l-7-.07-.35,36.71a37.21,37.21,0,0,0,7.05-.61Z"/><path class="cls-14" d="M45,44.82l-.06,6.65h0L96.36,52A52.22,52.22,0,0,0,96,45.31Z"/><path class="cls-15" d="M61.32,42.86A17.76,17.76,0,1,0,66.4,55.47,17.76,17.76,0,0,0,61.32,42.86ZM48.64,55.3Z"/><path class="cls-16" d="M57.56,39a17.76,17.76,0,1,0,5.08,12.6A17.64,17.64,0,0,0,57.56,39Z"/><text class="cls-17" transform="translate(63.78 29.34)">75%</text><text class="cls-18" transform="translate(18.12 75.67)">20%</text><text class="cls-19" transform="translate(60.96 75.66)">5%</text><text class="cls-20" transform="translate(16.59 28.83)">50%</text><text class="cls-21" transform="translate(48.1 9.23)">DATA<tspan x="0" y="4">01</tspan></text><text class="cls-22" transform="translate(3.74 44.44)">DATA<tspan x="0" y="4">02</tspan></text><text class="cls-23" transform="translate(34.89 83.88)">DATA<tspan x="4.55" y="3.51">03</tspan></text><text class="cls-24" transform="translate(71.45 56.88)">DATA<tspan x="4.55" y="3.51">04</tspan></text><path class="cls-25" d="M47.16,54.19H42.48a.42.42,0,0,0,.08.84h.78a.74.74,0,0,0,.74.66h1.36a.74.74,0,0,0,.74-.66h.91a.42.42,0,0,0,.07-.84Z"/><path class="cls-25" d="M49.46,47.84a4.64,4.64,0,1,0-7.65,3.53,5,5,0,0,1,.83,1.48h-.11a.43.43,0,0,0-.05.85h4.68a.42.42,0,0,0,.38-.42.43.43,0,0,0-.43-.43h-.06a4.88,4.88,0,0,1,1-1.63A4.63,4.63,0,0,0,49.46,47.84Zm-2.22-.68-2.6,2.6a.32.32,0,0,1-.25.1.35.35,0,0,1-.25-.1L43,48.6a.35.35,0,0,1,.5-.5l.91.91,2.35-2.35a.37.37,0,0,1,.5,0A.35.35,0,0,1,47.24,47.16Z"/><path class="cls-25" d="M44.82,38.73h0a.47.47,0,0,0-.46.47v1a.47.47,0,0,0,.46.47h0a.47.47,0,0,0,.47-.47v-1A.47.47,0,0,0,44.82,38.73Z"/><path class="cls-25" d="M40.33,39.8h0a.47.47,0,0,0-.17.63l.5.86a.46.46,0,0,0,.63.17h0a.46.46,0,0,0,.17-.64L41,40A.47.47,0,0,0,40.33,39.8Z"/><path class="cls-25" d="M37,43h0a.46.46,0,0,0,.17.63l.86.5a.47.47,0,0,0,.63-.17h0a.47.47,0,0,0-.17-.64l-.85-.49A.46.46,0,0,0,37,43Z"/><path class="cls-25" d="M35.66,47.39h0a.47.47,0,0,0,.47.46h1a.47.47,0,0,0,.46-.46h0a.47.47,0,0,0-.46-.47h-1A.47.47,0,0,0,35.66,47.39Z"/><path class="cls-25" d="M36.73,51.88h0a.48.48,0,0,0,.64.17l.85-.5a.46.46,0,0,0,.17-.63h0a.45.45,0,0,0-.63-.17l-.86.49A.47.47,0,0,0,36.73,51.88Z"/><path class="cls-25" d="M52.16,52.31h0a.47.47,0,0,0-.17-.64l-.85-.49a.47.47,0,0,0-.64.17h0a.47.47,0,0,0,.17.64l.85.49A.47.47,0,0,0,52.16,52.31Z"/><path class="cls-25" d="M53.48,47.89h0a.47.47,0,0,0-.47-.47H52a.47.47,0,0,0-.47.47h0a.47.47,0,0,0,.47.46h1A.47.47,0,0,0,53.48,47.89Z"/><path class="cls-25" d="M52.41,43.4h0a.46.46,0,0,0-.63-.17l-.86.49a.47.47,0,0,0-.17.64h0a.47.47,0,0,0,.64.17l.85-.49A.47.47,0,0,0,52.41,43.4Z"/><path class="cls-25" d="M49.24,40.05h0a.46.46,0,0,0-.63.17l-.5.85a.47.47,0,0,0,.17.64h0a.47.47,0,0,0,.64-.17l.49-.86A.46.46,0,0,0,49.24,40.05Z"/><text class="cls-26" transform="translate(33.05 59.76)">INFOGRAPHIC</text><text class="cls-26" transform="translate(40.22 63.87)">TITLE</text></g></g></g></svg>